<svg xmlns="http://www.w3.org/2000/svg" xmlns:xlink="http://www.w3.org/1999/xlink" viewBox="0 0 64 64"><defs><linearGradient id="a"><stop offset="0" stop-color="#0087d0"/><stop offset="1" stop-color="#08cfff"/></linearGradient><linearGradient xlink:href="#a" id="b" x1="20.068" y1="55.322" x2="24.949" y2="3.254" gradientUnits="userSpaceOnUse" spreadMethod="pad"/></defs><path d="M0 0h64v64H0z" fill="url(#b)"/><path class="icon-color" d="M20.837 67.74l37.95-40.93c1.046-1.142.915-3.424-1.86-3.424H41.891c-1.763 0-2.566-1.023-1.71-2.286L53.542 1.274c.96-1.228.934-3.664-1.959-3.664H24.13A4.415 3.459 0 0020.093.051l-11.6 36.07c-.43 1.34.687 2.44 2.502 2.44h13.303c1.855 0 2.763 1.075 2.123 2.41 0 0-12.187 25.219-12.187 25.71a3.265 2.558 0 005.656 1.74 3.004 2.354 0 00.947-.681z" fill="#fff"/></svg>
