<svg width="64" height="64" viewBox="0 0 64 64" fill="none" xmlns="http://www.w3.org/2000/svg">
<g clip-path="url(#clip0_618_5)">
<path d="M0 0H64V64H0V0Z" fill="#0087D0"/>
<path d="M24.8598 50.6842L45.7933 28.1069C46.3703 27.477 46.298 26.2182 44.7673 26.2182H36.4734C35.5009 26.2182 35.0579 25.6539 35.5301 24.9572L42.9001 14.0211C43.4297 13.3437 43.4153 12 41.8195 12H26.6763C26.1729 12.0164 25.6884 12.1547 25.2896 12.3959C24.8908 12.637 24.5973 12.9691 24.4494 13.3465L18.0508 33.2429C17.8136 33.9821 18.4297 34.5889 19.4309 34.5889H26.7689C27.7922 34.5889 28.293 35.1818 27.94 35.9182C27.94 35.9182 21.2176 49.8292 21.2176 50.1C21.2178 50.3834 21.327 50.6601 21.5308 50.8942C21.7346 51.1282 22.0237 51.3088 22.3603 51.4124C22.6969 51.5159 23.0656 51.5377 23.4182 51.4748C23.7709 51.4119 24.0912 51.2673 24.3374 51.0598C24.5441 50.9656 24.7223 50.8375 24.8598 50.6842Z" fill="white"/>
</g>
<defs>
<clipPath id="clip0_618_5">
<rect width="64" height="64" fill="white"/>
</clipPath>
</defs>
</svg>
